<?xml version="1.0" encoding="utf-8"?>
<svg xmlns="http://www.w3.org/2000/svg" style="margin: auto; background: none; display: block; shape-rendering: auto;"
     width="200px" height="200px" viewBox="0 0 100 100" preserveAspectRatio="xMidYMid">
    <g transform="rotate(0 50 50)">
        <rect x="47" y="24" rx="3" ry="6" width="6" height="12" fill="#f4a358">
            <animate attributeName="opacity" values="1;0" keyTimes="0;1" dur="1.1235955056179776s"
                     begin="-1.0299625468164795s" repeatCount="indefinite"></animate>
        </rect>
    </g>
    <g transform="rotate(30 50 50)">
        <rect x="47" y="24" rx="3" ry="6" width="6" height="12" fill="#f4a358">
            <animate attributeName="opacity" values="1;0" keyTimes="0;1" dur="1.1235955056179776s"
                     begin="-0.9363295880149813s" repeatCount="indefinite"></animate>
        </rect>
    </g>
    <g transform="rotate(60 50 50)">
        <rect x="47" y="24" rx="3" ry="6" width="6" height="12" fill="#f4a358">
            <animate attributeName="opacity" values="1;0" keyTimes="0;1" dur="1.1235955056179776s"
                     begin="-0.8426966292134832s" repeatCount="indefinite"></animate>
        </rect>
    </g>
    <g transform="rotate(90 50 50)">
        <rect x="47" y="24" rx="3" ry="6" width="6" height="12" fill="#f4a358">
            <animate attributeName="opacity" values="1;0" keyTimes="0;1" dur="1.1235955056179776s"
                     begin="-0.7490636704119851s" repeatCount="indefinite"></animate>
        </rect>
    </g>
    <g transform="rotate(120 50 50)">
        <rect x="47" y="24" rx="3" ry="6" width="6" height="12" fill="#f4a358">
            <animate attributeName="opacity" values="1;0" keyTimes="0;1" dur="1.1235955056179776s"
                     begin="-0.6554307116104869s" repeatCount="indefinite"></animate>
        </rect>
    </g>
    <g transform="rotate(150 50 50)">
        <rect x="47" y="24" rx="3" ry="6" width="6" height="12" fill="#f4a358">
            <animate attributeName="opacity" values="1;0" keyTimes="0;1" dur="1.1235955056179776s"
                     begin="-0.5617977528089888s" repeatCount="indefinite"></animate>
        </rect>
    </g>
    <g transform="rotate(180 50 50)">
        <rect x="47" y="24" rx="3" ry="6" width="6" height="12" fill="#f4a358">
            <animate attributeName="opacity" values="1;0" keyTimes="0;1" dur="1.1235955056179776s"
                     begin="-0.46816479400749067s" repeatCount="indefinite"></animate>
        </rect>
    </g>
    <g transform="rotate(210 50 50)">
        <rect x="47" y="24" rx="3" ry="6" width="6" height="12" fill="#f4a358">
            <animate attributeName="opacity" values="1;0" keyTimes="0;1" dur="1.1235955056179776s"
                     begin="-0.37453183520599254s" repeatCount="indefinite"></animate>
        </rect>
    </g>
    <g transform="rotate(240 50 50)">
        <rect x="47" y="24" rx="3" ry="6" width="6" height="12" fill="#f4a358">
            <animate attributeName="opacity" values="1;0" keyTimes="0;1" dur="1.1235955056179776s"
                     begin="-0.2808988764044944s" repeatCount="indefinite"></animate>
        </rect>
    </g>
    <g transform="rotate(270 50 50)">
        <rect x="47" y="24" rx="3" ry="6" width="6" height="12" fill="#f4a358">
            <animate attributeName="opacity" values="1;0" keyTimes="0;1" dur="1.1235955056179776s"
                     begin="-0.18726591760299627s" repeatCount="indefinite"></animate>
        </rect>
    </g>
    <g transform="rotate(300 50 50)">
        <rect x="47" y="24" rx="3" ry="6" width="6" height="12" fill="#f4a358">
            <animate attributeName="opacity" values="1;0" keyTimes="0;1" dur="1.1235955056179776s"
                     begin="-0.09363295880149813s" repeatCount="indefinite"></animate>
        </rect>
    </g>
    <g transform="rotate(330 50 50)">
        <rect x="47" y="24" rx="3" ry="6" width="6" height="12" fill="#f4a358">
            <animate attributeName="opacity" values="1;0" keyTimes="0;1" dur="1.1235955056179776s" begin="0s"
                     repeatCount="indefinite"></animate>
        </rect>
    </g>
</svg>